<svg width="500" height="500" viewBox="0 0 500 500" fill="none" xmlns="http://www.w3.org/2000/svg">
<rect width="500" height="500" fill="black"/>
<path d="M171.1 159C170.9 178.8 170.8 196.4 170.8 211.8C170.8 227 170.8 241.5 170.8 255.3C170.8 265.5 170.8 275.7 170.8 285.9C170.8 296.1 170.9 307.4 171.1 319.8L202.9 327.6L199 339C193.8 338.6 186.5 338.4 177.1 338.4C167.9 338.2 158.5 338.1 148.9 338.1C139.7 338.1 130.4 338.2 121 338.4C111.8 338.6 104.1 338.8 97.9 339L93.7 327.6L126.1 319.8C126.5 305 126.8 291.5 127 279.3C127.4 266.9 127.6 254.4 127.6 241.8C127.6 230 127.4 217.4 127 204C126.8 190.4 126.5 175.4 126.1 159H171.1ZM239.5 141C238.1 153.2 237.2 164.9 236.8 176.1C236.4 187.1 236.2 197.3 236.2 206.7H216.7L208.9 163.2C205.5 162.8 201.7 162.6 197.5 162.6C193.3 162.4 189.1 162.3 184.9 162.3C178.7 162.3 172.5 162.5 166.3 162.9C160.1 163.3 154.5 164 149.5 165C144.3 164 138.4 163.4 131.8 163.2C125.2 162.8 118.6 162.6 112 162.6C108.2 162.6 104.5 162.7 100.9 162.9C97.3 162.9 93.9 163 90.7 163.2L82.9 206.7H63.4C63.2 197.3 62.8 187.2 62.2 176.4C61.6 165.6 60.7 153.8 59.5 141C66.3 141.2 74.6 141.4 84.4 141.6C94.4 141.8 105.1 142 116.5 142.2C128.1 142.2 139.8 142.2 151.6 142.2C163.6 142.2 175.2 142.2 186.4 142.2C197.6 142 207.8 141.8 217 141.6C226.2 141.4 233.7 141.2 239.5 141ZM343.877 141L348.377 152.7L328.577 157.5C331.577 164.1 335.177 172.6 339.377 183C343.777 193.2 348.877 204.3 354.677 216.3C360.477 228.3 366.877 240.5 373.877 252.9L337.577 279.6C333.177 269.8 328.377 259.4 323.177 248.4C318.177 237.4 313.077 226.4 307.877 215.4C302.877 204.2 297.877 193.7 292.877 183.9C287.877 174.1 283.277 165.5 279.077 158.1L255.977 152.7L259.877 141C266.077 141.2 272.177 141.4 278.177 141.6C284.177 141.8 291.077 141.9 298.877 141.9C309.477 141.9 318.277 141.8 325.277 141.6C332.277 141.4 338.477 141.2 343.877 141ZM373.877 249.9C373.677 260.5 373.477 269.8 373.277 277.8C373.277 285.6 373.377 292.9 373.577 299.7C373.777 306.5 373.977 313.7 374.177 321.3L404.477 327.6L400.577 339C395.377 338.6 388.877 338.4 381.077 338.4C373.277 338.2 363.477 338.1 351.677 338.1C339.477 338.1 330.077 338.2 323.477 338.4C316.877 338.6 310.577 338.8 304.577 339L300.677 327.6L331.277 321.3C331.677 313.5 331.877 306.5 331.877 300.3C332.077 294.1 332.077 287.6 331.877 280.8C331.877 274 331.677 265.9 331.277 256.5L373.877 249.9ZM440.777 141L445.277 152.7L421.277 159C417.477 165.4 413.177 173.4 408.377 183C403.577 192.6 398.577 202.9 393.377 213.9C388.177 224.9 383.177 235.9 378.377 246.9C373.577 257.9 369.377 268.1 365.777 277.5L353.777 255.3C357.377 248.7 361.077 241.2 364.877 232.8C368.677 224.2 372.277 215.4 375.677 206.4C379.277 197.2 382.477 188.5 385.277 180.3C388.277 171.9 390.777 164.6 392.777 158.4L367.877 152.7L372.077 141C378.277 141.2 383.977 141.4 389.177 141.6C394.377 141.8 400.377 141.9 407.177 141.9C413.977 141.9 419.977 141.8 425.177 141.6C430.377 141.4 435.577 141.2 440.777 141Z" fill="#FAF9F6"/>
</svg>
